<svg width="127" height="32" viewBox="0 0 127 32" fill="none" xmlns="http://www.w3.org/2000/svg">
<path d="M28.0001 4C28.3537 4 28.6928 4.14048 28.9429 4.39052C29.1929 4.64057 29.3334 4.97971 29.3334 5.33333V12.6667C28.4494 12.6667 27.6015 13.0179 26.9764 13.643C26.3513 14.2681 26.0001 15.1159 26.0001 16C26.0001 16.8841 26.3513 17.7319 26.9764 18.357C27.6015 18.9821 28.4494 19.3333 29.3334 19.3333V26.6667C29.3334 27.0203 29.1929 27.3594 28.9429 27.6095C28.6928 27.8595 28.3537 28 28.0001 28H4.00008C3.64646 28 3.30732 27.8595 3.05727 27.6095C2.80722 27.3594 2.66675 27.0203 2.66675 26.6667V19.3333C3.5508 19.3333 4.39865 18.9821 5.02377 18.357C5.64889 17.7319 6.00008 16.8841 6.00008 16C6.00008 15.1159 5.64889 14.2681 5.02377 13.643C4.39865 13.0179 3.5508 12.6667 2.66675 12.6667V5.33333C2.66675 4.97971 2.80722 4.64057 3.05727 4.39052C3.30732 4.14048 3.64646 4 4.00008 4H28.0001ZM21.3334 12H10.6667V20H21.3334V12Z" fill="#0059F7"/>
<path d="M52.136 24.456C50.584 24.456 49.272 24.208 48.2 23.712C47.128 23.216 46.312 22.536 45.752 21.672C45.208 20.808 44.936 19.816 44.936 18.696H48.272C48.272 19.176 48.4 19.632 48.656 20.064C48.912 20.496 49.32 20.848 49.88 21.12C50.456 21.392 51.208 21.528 52.136 21.528C53.384 21.528 54.32 21.272 54.944 20.76C55.568 20.248 55.88 19.624 55.88 18.888C55.88 18.28 55.616 17.784 55.088 17.4C54.56 17.016 53.744 16.776 52.64 16.68L51.104 16.56C49.424 16.416 48.08 15.896 47.072 15C46.08 14.088 45.584 12.888 45.584 11.4C45.584 10.296 45.84 9.336 46.352 8.52C46.88 7.704 47.624 7.08 48.584 6.648C49.544 6.2 50.664 5.976 51.944 5.976C53.256 5.976 54.392 6.208 55.352 6.672C56.328 7.136 57.08 7.792 57.608 8.64C58.136 9.472 58.4 10.456 58.4 11.592H55.064C55.064 10.888 54.8 10.264 54.272 9.72C53.76 9.176 52.984 8.904 51.944 8.904C50.92 8.904 50.16 9.152 49.664 9.648C49.168 10.144 48.92 10.728 48.92 11.4C48.92 11.944 49.112 12.424 49.496 12.84C49.896 13.24 50.536 13.472 51.416 13.536L52.952 13.68C54.2 13.792 55.288 14.064 56.216 14.496C57.16 14.912 57.896 15.488 58.424 16.224C58.952 16.96 59.216 17.848 59.216 18.888C59.216 19.992 58.92 20.968 58.328 21.816C57.752 22.648 56.936 23.296 55.88 23.76C54.824 24.224 53.576 24.456 52.136 24.456ZM65.2839 24.336C63.8439 24.336 62.6919 23.968 61.8279 23.232C60.9799 22.496 60.5559 21.464 60.5559 20.136C60.5559 18.712 61.0679 17.664 62.0919 16.992C63.1319 16.304 64.5239 15.96 66.2679 15.96H68.9319V15.84C68.9319 14.352 68.1799 13.608 66.6759 13.608C66.2759 13.608 65.7959 13.616 65.2359 13.632C64.6759 13.648 64.1079 13.672 63.5319 13.704C62.9719 13.72 62.4679 13.744 62.0199 13.776V10.944C62.5639 10.896 63.2119 10.856 63.9639 10.824C64.7319 10.792 65.4359 10.776 66.0759 10.776C68.0759 10.776 69.5799 11.184 70.5879 12C71.6119 12.8 72.1239 14.104 72.1239 15.912V24H69.4839V21.504C68.8919 23.392 67.4919 24.336 65.2839 24.336ZM66.2199 21.96C66.6679 21.96 67.0919 21.88 67.4919 21.72C67.8919 21.544 68.2199 21.256 68.4759 20.856C68.7479 20.44 68.8999 19.88 68.9319 19.176V17.952H66.2199C65.4519 17.952 64.8599 18.144 64.4439 18.528C64.0439 18.896 63.8439 19.376 63.8439 19.968C63.8439 20.576 64.0439 21.064 64.4439 21.432C64.8599 21.784 65.4519 21.96 66.2199 21.96ZM75.5053 24V13.704H73.8973V11.256H75.5053V10.848C75.5053 9.36 75.9133 8.264 76.7293 7.56C77.5613 6.84 78.7853 6.48 80.4013 6.48H81.5533V9.024H80.1613C79.6653 9.024 79.2813 9.16 79.0093 9.432C78.7533 9.688 78.6253 10.056 78.6253 10.536V11.256H81.6493V13.704H78.6253V24H75.5053ZM84.2413 24V8.976H82.7293V6.48H87.5773V24H84.2413ZM97.1731 24.456C95.6371 24.456 94.3411 24.144 93.2851 23.52C92.2291 22.88 91.4211 22.048 90.8611 21.024C90.3171 20 90.0451 18.912 90.0451 17.76V17.256C90.0451 16.056 90.3251 14.944 90.8851 13.92C91.4611 12.896 92.2771 12.072 93.3331 11.448C94.4051 10.824 95.6851 10.512 97.1731 10.512C98.6451 10.512 99.9091 10.824 100.965 11.448C102.037 12.072 102.853 12.896 103.413 13.92C103.989 14.944 104.277 16.056 104.277 17.256V17.76C104.277 18.912 103.997 20 103.437 21.024C102.893 22.048 102.093 22.88 101.037 23.52C99.9811 24.144 98.6931 24.456 97.1731 24.456ZM97.1731 21.6C98.3891 21.6 99.3171 21.216 99.9571 20.448C100.613 19.664 100.941 18.68 100.941 17.496C100.941 16.312 100.605 15.328 99.9331 14.544C99.2611 13.76 98.3411 13.368 97.1731 13.368C95.9891 13.368 95.0611 13.76 94.3891 14.544C93.7171 15.328 93.3811 16.312 93.3811 17.496C93.3811 18.68 93.7011 19.664 94.3411 20.448C94.9971 21.216 95.9411 21.6 97.1731 21.6ZM108.573 24L105.021 10.968H108.261L110.925 21.264H111.429L113.373 11.4H117.213L119.445 21.264H119.949L122.325 10.968H125.349L122.205 24H117.429L115.269 14.64L113.349 24H108.573Z" fill="#081131"/>
</svg>
